<svg aria-hidden="true" style="position:absolute;width:0;height:0;overflow:hidden" xmlns="http://www.w3.org/2000/svg">
  <defs>
    <symbol id="appIcon" viewBox="0 0 32 32">
      <path fill="#161616" style="fill: var(--color1, #161616)" d="M25.6 0h-19.2c-3.535 0-6.4 2.865-6.4 6.4v0 19.2c0 3.535 2.865 6.4 6.4 6.4v0h19.2c3.535 0 6.4-2.865 6.4-6.4v0-19.2c0-3.535-2.865-6.4-6.4-6.4v0z"></path>
      <path fill="#fff" style="fill: var(--color2, #fff)" d="M13.331 23.027c0.245-1.272 0.453-2.61 0.747-3.949 0.144-0.701-0.032-1-0.815-0.946s-1.656 0.027-2.49 0c-0.832-0.026-0.982-0.446-0.502-1.044 2.363-2.918 4.753-5.8 7.134-8.674 0.266-0.326 0.574-0.558 1.014-0.312s0.349 0.549 0.276 0.914c-0.262 1.338-0.48 2.678-0.77 3.989-0.149 0.678 0.046 0.92 0.752 0.893 0.318-0.017 0.689-0.027 1.064-0.027s0.746 0.010 1.115 0.029l-0.052-0.002c0.402 0 0.933-0.21 1.141 0.339s-0.231 0.781-0.453 1.106c-1.328 1.643-2.228 2.73-3.136 3.811l0.384-0.47c-1.361 1.624-2.712 3.242-4.051 4.854-0.262 0.317-0.557 0.571-1.005 0.41s-0.354-0.54-0.354-0.923z"></path>
    </symbol>
    <symbol id="eye" viewBox="0 0 32 32">
<path fill="#f6f6f7" stroke="#f6f6f7" style="stroke: var(--color2, #fff)" stroke-linejoin="round" stroke-linecap="round" stroke-miterlimit="4" stroke-width="2.3111" d="M1.333 16s5.333-10.667 14.667-10.667 14.667 10.667 14.667 10.667-5.333 10.667-14.667 10.667-14.667-10.667-14.667-10.667z"></path>
<path fill="#f6f6f7" stroke="#f6f6f7" style="stroke: var(--color2, #fff)" stroke-linejoin="round" stroke-linecap="round" stroke-miterlimit="4" stroke-width="2.3111" d="M16 20c2.209 0 4-1.791 4-4s-1.791-4-4-4v0c-2.209 0-4 1.791-4 4s1.791 4 4 4v0z"></path>
</symbol>
<symbol id="boySvg" viewBox="0 0 32 32">
<path d="M0 0h32v32h-32v-32z"></path>
</symbol>
  </defs>
</svg>